Coordinates
version=1
nRows=14
nColumns=24
inDegrees=yes

Units are S.I. units (second, meters, Newtons, ...)
Angles are in degrees.

endheader
time	pelvis_tilt	pelvis_list	pelvis_rotation	pelvis_tx	pelvis_ty	pelvis_tz	hip_flexion_r	hip_adduction_r	hip_rotation_r	knee_angle_r	ankle_angle_r	subtalar_angle_r	mtp_angle_r	hip_flexion_l	hip_adduction_l	hip_rotation_l	knee_angle_l	ankle_angle_l	subtalar_angle_l	mtp_angle_l	lumbar_extension	lumbar_bending	lumbar_rotation
      3.73000000	     65.40218211	      4.64557019	     -1.58036352	      0.76955834	      1.02698321	     -0.28807453	      0.52553200	    -11.09191042	     -2.04640221	    -58.79052756	     19.27924615	     -8.76709771	    -27.30355977	     -1.16909382	     -2.95436750	    -12.25533458	    -65.69268538	     13.46561268	     -5.39982878	 355934.02815200	      0.00000000	      0.00000000	      0.00000000
      3.74000000	     65.41213727	      4.65327984	     -1.58115124	      0.76956828	      1.02688516	     -0.28807782	      0.54302726	    -11.08569987	     -2.03091619	    -58.64056252	     19.20921964	     -8.81086697	    -27.59315574	     -1.16720862	     -2.95760453	    -12.25695244	    -65.70778434	     13.22467697	     -5.72946929	 373204.78709603	      0.00000000	      0.00000000	      0.00000000
      3.75000000	     65.42374550	      4.64513253	     -1.56303116	      0.76933325	      1.02729562	     -0.28795715	      0.57454230	    -11.05306474	     -2.01567156	    -58.52114182	     19.07904704	     -8.87984816	    -27.92621844	     -1.17411608	     -2.92215013	    -12.29718169	    -65.80176335	     12.86429923	     -5.83046124	 390880.15454502	      0.00000000	      0.00000000	      0.00000000
      3.76000000	     65.42820115	      4.62091153	     -1.53850939	      0.76906260	      1.02776519	     -0.28780209	      0.61485243	    -11.00131353	     -2.00117136	    -58.44345262	     18.91129684	     -8.96549911	    -28.26174789	     -1.19102886	     -2.88545823	    -12.34394340	    -65.92637437	     12.41869342	     -5.69588443	 408964.26146721	      0.00000000	      0.00000000	      0.00000000
      3.77000000	     65.42423613	      4.58771762	     -1.52570263	      0.76902189	      1.02786952	     -0.28780559	      0.66204327	    -10.94472769	     -1.98659312	    -58.41488609	     18.73633996	     -9.05722457	    -28.55640058	     -1.21550036	     -2.89431860	    -12.35670936	    -66.01929260	     11.97101314	     -5.36541140	 427461.18916358	      0.00000000	      0.00000000	      0.00000000
      3.78000000	     65.41929529	      4.55070083	     -1.53006631	      0.76924415	      1.02761013	     -0.28795779	      0.71716656	    -10.89440140	     -1.97287712	    -58.42907814	     18.58569192	     -9.14289561	    -28.76978330	     -1.24458433	     -2.96315591	    -12.31974066	    -66.05484490	     11.65140563	     -4.90755363	 446374.97584626	      0.00000000	      0.00000000	      0.00000000
      3.79000000	     65.41919989	      4.51166898	     -1.54112933	      0.76949484	      1.02718564	     -0.28801290	      0.77349002	    -10.85358425	     -1.96494915	    -58.46536540	     18.48619364	     -9.21018083	    -28.87031188	     -1.27538892	     -3.06084662	    -12.25622321	    -66.06656427	     11.60238075	     -4.39714364	 465709.62784925	      0.00000000	      0.00000000	      0.00000000
      3.80000000	     65.42993005	      4.48145537	     -1.54883874	      0.76958966	      1.02691042	     -0.28793701	      0.80971809	    -10.82069315	     -1.97077980	    -58.49893238	     18.45621724	     -9.24878453	    -28.84063210	     -1.29307019	     -3.14151165	    -12.20987288	    -66.11966591	     11.91943104	     -3.89870256	 485469.13621678	      0.00000000	      0.00000000	      0.00000000
      3.81000000	     65.45358216	      4.47312809	     -1.54923805	      0.76953436	      1.02698650	     -0.28789808	      0.80324229	    -10.79505918	     -1.99671988	    -58.51304175	     18.50360910	     -9.25288387	    -28.68144619	     -1.28166030	     -3.17342770	    -12.21530146	    -66.26463896	     12.58958417	     -3.45717171	 505657.49798276	      0.00000000	      0.00000000	      0.00000000
      3.82000000	     65.47990820	      4.48409283	     -1.53957306	      0.76936784	      1.02725604	     -0.28788096	      0.74889230	    -10.77968351	     -2.04268587	    -58.50705467	     18.62458429	     -9.22287380	    -28.41269093	     -1.24575443	     -3.14865459	    -12.27741569	    -66.50285773	     13.46549164	     -3.09694327	 526278.73954557	      0.00000000	      0.00000000	      0.00000000
      3.83000000	     65.49893354	      4.50219546	     -1.52329963	      0.76915218	      1.02755539	     -0.28781127	      0.66314103	    -10.77879015	     -2.10143840	    -58.49722439	     18.80337412	     -9.16575173	    -28.07142996	     -1.20222278	     -3.09010114	    -12.36579298	    -66.77502830	     14.30052800	     -2.82909601	 547336.93883804	      0.00000000	      0.00000000	      0.00000000
      3.84000000	     65.50904459	      4.51851073	     -1.51172135	      0.76902215	      1.02784329	     -0.28777641	      0.57411901	    -10.79154160	     -2.16271580	    -58.50881486	     19.01329884	     -9.09384501	    -27.70651453	     -1.16739725	     -3.03935431	    -12.43189057	    -66.98787815	     14.83016272	     -2.65813941	 568836.24417794	      0.00000000	      0.00000000	      0.00000000
      3.85000000	     65.50779135	      4.52593222	     -1.51178623	      0.76908649	      1.02789979	     -0.28784978	      0.50845869	    -10.80868852	     -2.21789816	    -58.56270872	     19.22021648	     -9.02213277	    -27.37081781	     -1.15995586	     -3.02354247	    -12.44106173	    -67.06926675	     14.86399647	     -2.58328640	 590780.88861629	      0.00000000	      0.00000000	      0.00000000
      3.86000000	     65.49590190	      4.52080610	     -1.52040381	      0.76934216	      1.02759267	     -0.28799130	      0.48025086	    -10.81776306	     -2.26123116	    -58.66506652	     19.38869667	     -8.96497825	    -27.11241022	     -1.19095653	     -3.04041237	    -12.39214196	    -67.00752904	     14.35435541	     -2.59897148	 613175.19852059	      0.00000000	      0.00000000	      0.00000000
